<?xml version="1.0" encoding="UTF-8"?>
<svg xmlns="http://www.w3.org/2000/svg" viewBox="0 0 512 512" fill="#ffffff">
  <path d="M448 32H64C28.65 32 0 60.65 0 96v320c0 35.35 28.65 64 64 64h384c35.35 0 64-28.65 64-64V96C512 60.65 483.3 32 448 32zM96 256H64V192h32V256zM96 320H64V288h32V320zM96 160H64V128h32V160zM96 384H64v-32h32V384zM176 256h-32V192h32V256zM176 320h-32V288h32V320zM176 160h-32V128h32V160zM176 384h-32v-32h32V384zM256 256h-32V192h32V256zM256 320h-32V288h32V320zM256 160h-32V128h32V160zM256 384h-32v-32h32V384zM336 256h-32V192h32V256zM336 320h-32V288h32V320zM336 160h-32V128h32V160zM336 384h-32v-32h32V384zM416 256h-32V192h32V256zM416 320h-32V288h32V320zM416 160h-32V128h32V160zM416 384h-32v-32h32V384z"/>
</svg>